<?xml version="1.0" encoding="utf-8"?>
<!-- Generator: Adobe Illustrator 18.0.0, SVG Export Plug-In . SVG Version: 6.00 Build 0)  -->
<!DOCTYPE svg PUBLIC "-//W3C//DTD SVG 1.1//EN" "http://www.w3.org/Graphics/SVG/1.1/DTD/svg11.dtd">
<svg version="1.1" id="Layer_1" xmlns="http://www.w3.org/2000/svg" xmlns:xlink="http://www.w3.org/1999/xlink" x="0px" y="0px"
	 viewBox="0 0 699.5 239.3" style="enable-background:new 0 0 699.5 239.3;" xml:space="preserve">
<g>
	<path d="M166.9,122.3c-8.2-6.7-17.4-11.5-27.2-15.2c-15.4-5.8-31.1-11.1-46.5-16.8c-6.5-2.4-13.1-4.9-18.6-9.6
		c-4.9-4.2-5.4-11.2-1.3-16.1c3.4-4,8-5.8,13-6.5c9.9-1.5,19.7-0.5,29.4,1.2c14.7,2.5,28.8,7.2,42.9,12.2c2.4,0.9,4.8,1.7,7.3,2.6
		c5.9-14.6,11.6-28.8,17.4-43.1c-0.6-0.3-0.8-0.5-1.1-0.7c-21.2-9.3-43.1-16.4-66.3-18.9c-13.8-1.5-27.6-2.3-41.5-0.9
		c-11.6,1.2-22.7,4.1-32.9,9.9c-13.1,7.4-22.5,18-27.7,32.3c-4,11.1-4.8,22.5-3.3,34.2c1.7,13.2,7,24.7,16.1,34.3
		c10.7,11.5,24.2,18.5,38.9,23.5c12.1,4.1,24.4,7.6,36.4,11.8c5.5,1.9,10.7,4.7,15.7,7.6c3.1,1.7,4.3,5,4.2,8.6
		c0,7.7-4.9,13.2-13.1,14.6c-8,1.3-16,0.6-23.8-0.7c-14.3-2.4-27.8-7.3-40.9-13.4c-7.4-3.5-14.6-7.1-22-10.8
		C14.7,177.6,7.4,192.9,0,208.3c0.6,0.4,1.1,0.8,1.7,1.1c17,9.8,35.2,16.8,54.1,21.8c20.7,5.5,41.7,9,63.3,6.7
		c14.4-1.5,28-5.3,40.1-13.3c12.3-8.2,20.6-19.5,24.5-33.9c3.3-12,3.2-24.2,1.2-36.4C182.9,141.4,177.1,130.6,166.9,122.3z"/>
	<path d="M360.5,92.4C356,80,348.4,70.5,336.6,64.5c-9.3-4.7-19.3-6.7-29.6-7.6c-13.1-1.1-26.1-0.9-39,1.3
		c-13.3,2.3-26.4,5.4-39.6,8.2c-3.8,0.8-7.6,2-11.5,3c2.9,13.2,5.8,26.1,8.7,39c0.7,0,1.1,0.1,1.5,0c13.4-2.2,26.8-4.7,40.2-6.4
		c7.9-0.9,16-0.7,23.9-0.3c5.1,0.2,9.8,2.3,13.1,6.7c4.4,6,4.4,13,4.7,20.2c-1.2,0-2.2,0-3.2,0c-16.2,0.3-32.3,0.3-48.5,1
		c-11.6,0.5-22.9,3.3-33.2,8.8c-11.4,6-18.9,15.3-22.2,27.8c-3.3,12.6-2.8,25.2,0.1,37.8c3.7,16,13.4,26.6,29.2,31.4
		c8.8,2.6,17.8,3.4,26.8,3.3c8.3-0.1,16.3-1.6,24-4.8c9.4-4,17.3-9.9,24.6-16.9c0.7-0.6,1.3-1.2,2.4-2.2c0,7.3,0,13.9,0,20.6
		c18.9,0,37.6,0,56.7,0c0-0.8,0-1.4,0-2c0-34.7,0.1-69.4,0-104.1C365.7,116.7,364.7,104.3,360.5,92.4z M309,180.7
		c0,0.6-0.3,1.3-0.7,1.7c-8.8,9.1-19.1,14.9-32.1,14.7c-5.8-0.1-11.3-1.2-16-4.9c-5.4-4.2-7.5-10-7.1-16.5c0.2-3,0.9-6.2,2.4-8.8
		c2.5-4.6,7.4-5.9,12.3-6.4c5.1-0.6,10.2-0.8,15.4-0.9c8.6-0.1,17.1,0,26,0C309,166.9,309,173.8,309,180.7z"/>
	<path d="M582.8,191.3c-6.1-0.2-11.6-2.4-14.1-8.3c-1.6-3.6-2.5-7.8-2.5-11.8c-0.3-20.7-0.1-41.3-0.1-62c0-0.6,0.1-1.1,0.1-2
		c14.2,0,28.4,0,42.6,0c0-16,0-31.8,0-47.7c-14.3,0-28.5,0-42.9,0c0-13,0-45.9,0-58.7c-19.5,0-38.7,0-58.3,0c0,13,0,45.9,0,58.9
		c-8.4,0-16.4,0-24.6,0c0,15.9,0,31.6,0,47.6c8.2,0,16.2,0,24.7,0c0,1.3,0,2.3,0,3.3c0,20.4,0,40.8,0,61.2c0,9.6,0.7,19.1,2.9,28.4
		c2.8,11.9,8.2,22.4,18.7,29.3c9.2,6,19.7,7.9,30.5,8.4c13,0.6,25.7-0.9,38.2-4.4c6.6-1.8,13-4.1,18.8-7.6
		c-1.8-11.7-3.7-23.3-5.4-34.5C601.7,191.3,592.2,191.5,582.8,191.3z"/>
	<path d="M399.9,235.2c19.4,0,38.6,0,57.8,0c0-78.2,0-156.3,0-234.5c-19.3,0-38.5,0-57.8,0C399.9,79.1,399.9,157.2,399.9,235.2z"/>
	<path d="M670.1,178.3c-17.5-0.1-30,12.3-30,29.7c0.1,17.2,12.4,29.7,29.5,29.9c17.3,0.1,29.8-12.3,29.9-29.8
		C699.6,190.7,687.4,178.4,670.1,178.3z"/>
</g>
</svg>
